<svg width="446" height="57" viewBox="0 0 446 57" fill="none" xmlns="http://www.w3.org/2000/svg">
<path d="M0 14.1825H276.935C281.689 14.1825 286.161 16.4357 288.99 20.2558L316 56.7301H0V14.1825Z" fill="#D9D9D9"/>
<path d="M0 2C0 0.895431 0.89543 0 2 0H208.1C212.765 0 217.164 2.17055 220.003 5.87261L256.533 53.5131C257.542 54.8288 256.604 56.7301 254.946 56.7301H2C0.895434 56.7301 0 55.8347 0 54.7301V2Z" fill="#4E90FE"/>
<path d="M0.00249211 51.3778C0.00300345 50.2733 0.898848 49.3791 2.00342 49.3807L443.003 50.0224C444.108 50.024 445.003 50.9207 445.002 52.0253L445.001 55C445 56.1046 444.105 56.9987 443 56.9971L2.00018 56.3555C0.895614 56.3538 0.000603692 55.4571 0.00111503 54.3525L0.00249211 51.3778Z" fill="#4E90FE"/>
</svg>
