<svg width="446" height="33" viewBox="0 0 446 33" fill="none" xmlns="http://www.w3.org/2000/svg">
<path d="M0 8H279.43C282.714 8 285.907 9.07763 288.52 11.0675L316 32H0V8Z" fill="#D9D9D9"/>
<path d="M0 2C0 0.895431 0.89543 0 2 0H210.577C213.775 0 216.889 1.02212 219.466 2.91718L254.091 28.389C255.647 29.5335 254.838 32 252.906 32H2C0.895434 32 0 31.1046 0 30V2Z" fill="#4E90FE"/>
<path d="M0.00180357 29.8199C0.00269518 28.7335 0.884131 27.8535 1.97055 27.8544L443.036 28.2164C444.123 28.2173 445.003 29.0987 445.002 30.1851V30.1851C445.001 31.2715 444.119 32.1515 443.033 32.1506L1.96732 31.7887C0.880905 31.7878 0.000911962 30.9063 0.00180357 29.8199V29.8199Z" fill="#4E90FE"/>
</svg>
